<?xml version="1.0" encoding="UTF-8" standalone="no"?>
<!DOCTYPE svg PUBLIC "-//W3C//DTD SVG 1.1//EN"
 "http://www.w3.org/Graphics/SVG/1.1/DTD/svg11.dtd">
<!-- Generated by graphviz version 12.2.1 (20241206.2353)
 -->
<!-- Title: DietFlow Pages: 1 -->
<svg width="494pt" height="682pt"
 viewBox="0.00 0.00 493.72 682.48" xmlns="http://www.w3.org/2000/svg" xmlns:xlink="http://www.w3.org/1999/xlink">
<g id="graph0" class="graph" transform="scale(1 1) rotate(0) translate(14.4 668.08)">
<title>DietFlow</title>
<polygon fill="white" stroke="none" points="-14.4,14.4 -14.4,-668.08 479.32,-668.08 479.32,14.4 -14.4,14.4"/>
<!-- start -->
<g id="node1" class="node">
<title>start</title>
<ellipse fill="none" stroke="#000000" stroke-width="1.2" cx="65.46" cy="-634.54" rx="8.64" ry="8.64"/>
</g>
<!-- A1 -->
<g id="node3" class="node">
<title>A1</title>
<path fill="none" stroke="#000000" stroke-width="1.2" d="M103.92,-536.9C103.92,-536.9 27,-536.9 27,-536.9 21,-536.9 15,-530.9 15,-524.9 15,-524.9 15,-510.62 15,-510.62 15,-504.62 21,-498.62 27,-498.62 27,-498.62 103.92,-498.62 103.92,-498.62 109.92,-498.62 115.92,-504.62 115.92,-510.62 115.92,-510.62 115.92,-524.9 115.92,-524.9 115.92,-530.9 109.92,-536.9 103.92,-536.9"/>
<text text-anchor="middle" x="65.46" y="-514.01" font-family="Microsoft YaHei" font-size="15.00" fill="#000000">进入记录页</text>
</g>
<!-- start&#45;&gt;A1 -->
<g id="edge1" class="edge">
<title>start&#45;&gt;A1</title>
<path fill="none" stroke="#000000" stroke-width="1.4" d="M65.46,-625.76C65.46,-625.76 65.46,-548.46 65.46,-548.46"/>
<polygon fill="#000000" stroke="#000000" stroke-width="1.4" points="68.61,-548.46 65.46,-539.46 62.31,-548.46 68.61,-548.46"/>
</g>
<!-- end -->
<g id="node2" class="node">
<title>end</title>
<ellipse fill="none" stroke="#000000" stroke-width="1.2" cx="399.46" cy="-29.64" rx="10.08" ry="10.08"/>
<ellipse fill="none" stroke="#000000" stroke-width="1.2" cx="399.46" cy="-29.64" rx="14.08" ry="14.08"/>
</g>
<!-- A2 -->
<g id="node4" class="node">
<title>A2</title>
<path fill="none" stroke="#000000" stroke-width="1.2" d="M96.42,-420.12C96.42,-420.12 34.5,-420.12 34.5,-420.12 28.5,-420.12 22.5,-414.12 22.5,-408.12 22.5,-408.12 22.5,-372.84 22.5,-372.84 22.5,-366.84 28.5,-360.84 34.5,-360.84 34.5,-360.84 96.42,-360.84 96.42,-360.84 102.42,-360.84 108.42,-366.84 108.42,-372.84 108.42,-372.84 108.42,-408.12 108.42,-408.12 108.42,-414.12 102.42,-420.12 96.42,-420.12"/>
<text text-anchor="middle" x="65.46" y="-397.23" font-family="Microsoft YaHei" font-size="15.00" fill="#000000">选择日期</text>
<text text-anchor="middle" x="65.46" y="-376.23" font-family="Microsoft YaHei" font-size="15.00" fill="#000000">与餐次</text>
</g>
<!-- A1&#45;&gt;A2 -->
<g id="edge2" class="edge">
<title>A1&#45;&gt;A2</title>
<path fill="none" stroke="#000000" stroke-width="1.4" d="M65.46,-498.15C65.46,-498.15 65.46,-431.41 65.46,-431.41"/>
<polygon fill="#000000" stroke="#000000" stroke-width="1.4" points="68.61,-431.41 65.46,-422.41 62.31,-431.41 68.61,-431.41"/>
</g>
<!-- A3 -->
<g id="node5" class="node">
<title>A3</title>
<path fill="none" stroke="#000000" stroke-width="1.2" d="M103.92,-292.84C103.92,-292.84 27,-292.84 27,-292.84 21,-292.84 15,-286.84 15,-280.84 15,-280.84 15,-266.56 15,-266.56 15,-260.56 21,-254.56 27,-254.56 27,-254.56 103.92,-254.56 103.92,-254.56 109.92,-254.56 115.92,-260.56 115.92,-266.56 115.92,-266.56 115.92,-280.84 115.92,-280.84 115.92,-286.84 109.92,-292.84 103.92,-292.84"/>
<text text-anchor="middle" x="65.46" y="-269.95" font-family="Microsoft YaHei" font-size="15.00" fill="#000000">跳转食物页</text>
</g>
<!-- A2&#45;&gt;A3 -->
<g id="edge3" class="edge">
<title>A2&#45;&gt;A3</title>
<path fill="none" stroke="#000000" stroke-width="1.4" d="M65.46,-360.41C65.46,-360.41 65.46,-304.17 65.46,-304.17"/>
<polygon fill="#000000" stroke="#000000" stroke-width="1.4" points="68.61,-304.17 65.46,-295.17 62.31,-304.17 68.61,-304.17"/>
</g>
<!-- A4 -->
<g id="node6" class="node">
<title>A4</title>
<path fill="none" stroke="#000000" stroke-width="1.2" d="M118.92,-186.56C118.92,-186.56 12,-186.56 12,-186.56 6,-186.56 0,-180.56 0,-174.56 0,-174.56 0,-139.28 0,-139.28 0,-133.28 6,-127.28 12,-127.28 12,-127.28 118.92,-127.28 118.92,-127.28 124.92,-127.28 130.92,-133.28 130.92,-139.28 130.92,-139.28 130.92,-174.56 130.92,-174.56 130.92,-180.56 124.92,-186.56 118.92,-186.56"/>
<text text-anchor="middle" x="65.46" y="-163.67" font-family="Microsoft YaHei" font-size="15.00" fill="#000000">按关键词或分类</text>
<text text-anchor="middle" x="65.46" y="-142.67" font-family="Microsoft YaHei" font-size="15.00" fill="#000000">检索食物</text>
</g>
<!-- A3&#45;&gt;A4 -->
<g id="edge4" class="edge">
<title>A3&#45;&gt;A4</title>
<path fill="none" stroke="#000000" stroke-width="1.4" d="M65.46,-254.15C65.46,-254.15 65.46,-197.74 65.46,-197.74"/>
<polygon fill="#000000" stroke="#000000" stroke-width="1.4" points="68.61,-197.74 65.46,-188.74 62.31,-197.74 68.61,-197.74"/>
</g>
<!-- A5 -->
<g id="node7" class="node">
<title>A5</title>
<path fill="none" stroke="#000000" stroke-width="1.2" d="M103.92,-59.28C103.92,-59.28 27,-59.28 27,-59.28 21,-59.28 15,-53.28 15,-47.28 15,-47.28 15,-12 15,-12 15,-6 21,0 27,0 27,0 103.92,0 103.92,0 109.92,0 115.92,-6 115.92,-12 115.92,-12 115.92,-47.28 115.92,-47.28 115.92,-53.28 109.92,-59.28 103.92,-59.28"/>
<text text-anchor="middle" x="65.46" y="-36.39" font-family="Microsoft YaHei" font-size="15.00" fill="#000000">选择食物并</text>
<text text-anchor="middle" x="65.46" y="-15.39" font-family="Microsoft YaHei" font-size="15.00" fill="#000000">输入重量</text>
</g>
<!-- A4&#45;&gt;A5 -->
<g id="edge5" class="edge">
<title>A4&#45;&gt;A5</title>
<path fill="none" stroke="#000000" stroke-width="1.4" d="M65.46,-127.08C65.46,-127.08 65.46,-70.85 65.46,-70.85"/>
<polygon fill="#000000" stroke="#000000" stroke-width="1.4" points="68.61,-70.85 65.46,-61.85 62.31,-70.85 68.61,-70.85"/>
</g>
<!-- route_mid -->
<!-- A5&#45;&gt;route_mid -->
<g id="edge11" class="edge">
<title>A5&#45;&gt;route_mid</title>
<path fill="none" stroke="#000000" stroke-width="1.3" d="M116.08,-30C166.82,-30 238.37,-30 244.97,-30"/>
</g>
<!-- A5&#45;&gt;route_mid -->
<!-- B1 -->
<g id="node8" class="node">
<title>B1</title>
<path fill="none" stroke="#000000" stroke-width="1.2" d="M445.42,-653.68C445.42,-653.68 353.5,-653.68 353.5,-653.68 347.5,-653.68 341.5,-647.68 341.5,-641.68 341.5,-641.68 341.5,-627.4 341.5,-627.4 341.5,-621.4 347.5,-615.4 353.5,-615.4 353.5,-615.4 445.42,-615.4 445.42,-615.4 451.42,-615.4 457.42,-621.4 457.42,-627.4 457.42,-627.4 457.42,-641.68 457.42,-641.68 457.42,-647.68 451.42,-653.68 445.42,-653.68"/>
<text text-anchor="middle" x="399.46" y="-630.79" font-family="Microsoft YaHei" font-size="15.00" fill="#000000">提交饮食记录</text>
</g>
<!-- B2 -->
<g id="node9" class="node">
<title>B2</title>
<path fill="none" stroke="#000000" stroke-width="1.2" d="M437.92,-547.4C437.92,-547.4 361,-547.4 361,-547.4 355,-547.4 349,-541.4 349,-535.4 349,-535.4 349,-500.12 349,-500.12 349,-494.12 355,-488.12 361,-488.12 361,-488.12 437.92,-488.12 437.92,-488.12 443.92,-488.12 449.92,-494.12 449.92,-500.12 449.92,-500.12 449.92,-535.4 449.92,-535.4 449.92,-541.4 443.92,-547.4 437.92,-547.4"/>
<text text-anchor="middle" x="399.46" y="-524.51" font-family="Microsoft YaHei" font-size="15.00" fill="#000000">校验参数并</text>
<text text-anchor="middle" x="399.46" y="-503.51" font-family="Microsoft YaHei" font-size="15.00" fill="#000000">查询食物</text>
</g>
<!-- B1&#45;&gt;B2 -->
<g id="edge6" class="edge">
<title>B1&#45;&gt;B2</title>
<path fill="none" stroke="#000000" stroke-width="1.4" d="M399.46,-614.99C399.46,-614.99 399.46,-558.58 399.46,-558.58"/>
<polygon fill="#000000" stroke="#000000" stroke-width="1.4" points="402.61,-558.58 399.46,-549.58 396.31,-558.58 402.61,-558.58"/>
</g>
<!-- B3 -->
<g id="node10" class="node">
<title>B3</title>
<path fill="none" stroke="#000000" stroke-width="1.2" d="M445.42,-420.12C445.42,-420.12 353.5,-420.12 353.5,-420.12 347.5,-420.12 341.5,-414.12 341.5,-408.12 341.5,-408.12 341.5,-372.84 341.5,-372.84 341.5,-366.84 347.5,-360.84 353.5,-360.84 353.5,-360.84 445.42,-360.84 445.42,-360.84 451.42,-360.84 457.42,-366.84 457.42,-372.84 457.42,-372.84 457.42,-408.12 457.42,-408.12 457.42,-414.12 451.42,-420.12 445.42,-420.12"/>
<text text-anchor="middle" x="399.46" y="-397.23" font-family="Microsoft YaHei" font-size="15.00" fill="#000000">生成身体快照</text>
<text text-anchor="middle" x="399.46" y="-376.23" font-family="Microsoft YaHei" font-size="15.00" fill="#000000">并换算营养</text>
</g>
<!-- B2&#45;&gt;B3 -->
<g id="edge7" class="edge">
<title>B2&#45;&gt;B3</title>
<path fill="none" stroke="#000000" stroke-width="1.4" d="M399.46,-487.92C399.46,-487.92 399.46,-431.69 399.46,-431.69"/>
<polygon fill="#000000" stroke="#000000" stroke-width="1.4" points="402.61,-431.69 399.46,-422.69 396.31,-431.69 402.61,-431.69"/>
</g>
<!-- B4 -->
<g id="node11" class="node">
<title>B4</title>
<path fill="none" stroke="#000000" stroke-width="1.2" d="M430.42,-292.84C430.42,-292.84 368.5,-292.84 368.5,-292.84 362.5,-292.84 356.5,-286.84 356.5,-280.84 356.5,-280.84 356.5,-266.56 356.5,-266.56 356.5,-260.56 362.5,-254.56 368.5,-254.56 368.5,-254.56 430.42,-254.56 430.42,-254.56 436.42,-254.56 442.42,-260.56 442.42,-266.56 442.42,-266.56 442.42,-280.84 442.42,-280.84 442.42,-286.84 436.42,-292.84 430.42,-292.84"/>
<text text-anchor="middle" x="399.46" y="-269.95" font-family="Microsoft YaHei" font-size="15.00" fill="#000000">保存记录</text>
</g>
<!-- B3&#45;&gt;B4 -->
<g id="edge8" class="edge">
<title>B3&#45;&gt;B4</title>
<path fill="none" stroke="#000000" stroke-width="1.4" d="M399.46,-360.41C399.46,-360.41 399.46,-304.17 399.46,-304.17"/>
<polygon fill="#000000" stroke="#000000" stroke-width="1.4" points="402.61,-304.17 399.46,-295.17 396.31,-304.17 402.61,-304.17"/>
</g>
<!-- B5 -->
<g id="node12" class="node">
<title>B5</title>
<path fill="none" stroke="#000000" stroke-width="1.2" d="M452.92,-186.56C452.92,-186.56 346,-186.56 346,-186.56 340,-186.56 334,-180.56 334,-174.56 334,-174.56 334,-139.28 334,-139.28 334,-133.28 340,-127.28 346,-127.28 346,-127.28 452.92,-127.28 452.92,-127.28 458.92,-127.28 464.92,-133.28 464.92,-139.28 464.92,-139.28 464.92,-174.56 464.92,-174.56 464.92,-180.56 458.92,-186.56 452.92,-186.56"/>
<text text-anchor="middle" x="399.46" y="-163.67" font-family="Microsoft YaHei" font-size="15.00" fill="#000000">返回记录页展示</text>
<text text-anchor="middle" x="399.46" y="-142.67" font-family="Microsoft YaHei" font-size="15.00" fill="#000000">餐次数据与小计</text>
</g>
<!-- B4&#45;&gt;B5 -->
<g id="edge9" class="edge">
<title>B4&#45;&gt;B5</title>
<path fill="none" stroke="#000000" stroke-width="1.4" d="M399.46,-254.15C399.46,-254.15 399.46,-197.74 399.46,-197.74"/>
<polygon fill="#000000" stroke="#000000" stroke-width="1.4" points="402.61,-197.74 399.46,-188.74 396.31,-197.74 402.61,-197.74"/>
</g>
<!-- B5&#45;&gt;end -->
<g id="edge10" class="edge">
<title>B5&#45;&gt;end</title>
<path fill="none" stroke="#000000" stroke-width="1.4" d="M399.46,-127.08C399.46,-127.08 399.46,-55.1 399.46,-55.1"/>
<polygon fill="#000000" stroke="#000000" stroke-width="1.4" points="402.61,-55.1 399.46,-46.1 396.31,-55.1 402.61,-55.1"/>
</g>
<!-- route_top -->
<!-- route_mid&#45;&gt;route_top -->
<g id="edge12" class="edge">
<title>route_mid&#45;&gt;route_top</title>
<path fill="none" stroke="#000000" stroke-width="1.3" d="M245.46,-30.32C245.46,-53.06 245.46,-635 245.46,-635 245.46,-635 272.71,-635 276.11,-635"/>
</g>
<!-- route_top&#45;&gt;B1 -->
<g id="edge13" class="edge">
<title>route_top&#45;&gt;B1</title>
<path fill="none" stroke="#000000" stroke-width="1.3" d="M276.81,-635C276.81,-635 330.22,-635 330.22,-635"/>
<polygon fill="#000000" stroke="#000000" stroke-width="1.3" points="330.22,-638.15 339.22,-635 330.22,-631.85 330.22,-638.15"/>
</g>
<!-- route_top&#45;&gt;B1 -->
</g>
</svg>
