<?xml version="1.0" encoding="UTF-8" standalone="no"?>
<!DOCTYPE svg PUBLIC "-//W3C//DTD SVG 1.1//EN"
 "http://www.w3.org/Graphics/SVG/1.1/DTD/svg11.dtd">
<!-- Generated by graphviz version 12.2.1 (20241206.2353)
 -->
<!-- Title: ER_Diet_System Pages: 1 -->
<svg width="1164pt" height="689pt"
 viewBox="0.00 0.00 1164.39 688.73" xmlns="http://www.w3.org/2000/svg" xmlns:xlink="http://www.w3.org/1999/xlink">
<g id="graph0" class="graph" transform="scale(1 1) rotate(0) translate(7.2 681.53)">
<title>ER_Diet_System</title>
<polygon fill="white" stroke="none" points="-7.2,7.2 -7.2,-681.53 1157.19,-681.53 1157.19,7.2 -7.2,7.2"/>
<!-- 用户 -->
<g id="node1" class="node">
<title>用户</title>
<polygon fill="none" stroke="#444444" points="490.44,-562.93 407.4,-562.93 407.4,-526.93 490.44,-526.93 490.44,-562.93"/>
<text text-anchor="middle" x="448.92" y="-541.18" font-family="Microsoft YaHei" font-size="15.00">用户信息</text>
</g>
<!-- 账号信息 -->
<g id="node7" class="node">
<title>账号信息</title>
<ellipse fill="none" stroke="#444444" cx="244.92" cy="-416.13" rx="63.49" ry="25.03"/>
<text text-anchor="middle" x="244.92" y="-412.38" font-family="Microsoft YaHei" font-size="15.00">账号/密码</text>
</g>
<!-- 用户&#45;&#45;账号信息 -->
<g id="edge1" class="edge">
<title>用户&#45;&#45;账号信息</title>
<path fill="none" stroke="#666666" d="M420.98,-526.56C383.77,-503.43 318.03,-462.57 278.26,-437.85"/>
</g>
<!-- 身体指标 -->
<g id="node8" class="node">
<title>身体指标</title>
<ellipse fill="none" stroke="#444444" cx="448.92" cy="-416.13" rx="118.12" ry="25.03"/>
<text text-anchor="middle" x="448.92" y="-412.38" font-family="Microsoft YaHei" font-size="15.00">身高/体重/BMI/BMR</text>
</g>
<!-- 用户&#45;&#45;身体指标 -->
<g id="edge2" class="edge">
<title>用户&#45;&#45;身体指标</title>
<path fill="none" stroke="#666666" d="M448.92,-526.56C448.92,-504.45 448.92,-466.13 448.92,-441.21"/>
</g>
<!-- 拥有 -->
<g id="node12" class="node">
<title>拥有</title>
<polygon fill="none" stroke="#444444" points="641.92,-451.53 588.88,-416.13 641.92,-380.73 694.96,-416.13 641.92,-451.53"/>
<text text-anchor="middle" x="641.92" y="-412.38" font-family="Microsoft YaHei" font-size="15.00">拥有</text>
</g>
<!-- 用户&#45;&#45;拥有 -->
<g id="edge6" class="edge">
<title>用户&#45;&#45;拥有</title>
<path fill="none" stroke="#666666" d="M475.35,-526.56C512.2,-502.35 578.65,-458.7 615.5,-434.48"/>
<text text-anchor="middle" x="560.72" y="-477.18" font-family="Microsoft YaHei" font-size="13.00">1</text>
</g>
<!-- 记录 -->
<g id="node13" class="node">
<title>记录</title>
<polygon fill="none" stroke="#444444" points="736.92,-360.73 683.88,-325.33 736.92,-289.93 789.96,-325.33 736.92,-360.73"/>
<text text-anchor="middle" x="736.92" y="-321.58" font-family="Microsoft YaHei" font-size="15.00">记录</text>
</g>
<!-- 用户&#45;&#45;记录 -->
<g id="edge8" class="edge">
<title>用户&#45;&#45;记录</title>
<path fill="none" stroke="#666666" d="M490.78,-528.88C563.6,-502.69 705.92,-451.53 705.92,-451.53 705.92,-451.53 720.32,-393.35 729.49,-356.31"/>
<text text-anchor="middle" x="649.47" y="-477.18" font-family="Microsoft YaHei" font-size="13.00">1</text>
</g>
<!-- 生成 -->
<g id="node16" class="node">
<title>生成</title>
<polygon fill="none" stroke="#444444" points="105.92,-451.53 52.88,-416.13 105.92,-380.73 158.96,-416.13 105.92,-451.53"/>
<text text-anchor="middle" x="105.92" y="-412.38" font-family="Microsoft YaHei" font-size="15.00">生成</text>
</g>
<!-- 用户&#45;&#45;生成 -->
<g id="edge14" class="edge">
<title>用户&#45;&#45;生成</title>
<path fill="none" stroke="#666666" d="M407,-529.99C329.34,-504.18 170.92,-451.53 170.92,-451.53 170.92,-451.53 152.3,-441.67 135,-432.52"/>
<text text-anchor="middle" x="288.77" y="-477.18" font-family="Microsoft YaHei" font-size="13.00">1</text>
</g>
<!-- 身体记录 -->
<g id="node2" class="node">
<title>身体记录</title>
<polygon fill="none" stroke="#444444" points="695.44,-252.53 582.4,-252.53 582.4,-216.53 695.44,-216.53 695.44,-252.53"/>
<text text-anchor="middle" x="638.92" y="-230.78" font-family="Microsoft YaHei" font-size="15.00">身体记录信息</text>
</g>
<!-- 饮食记录 -->
<g id="node3" class="node">
<title>饮食记录</title>
<polygon fill="none" stroke="#444444" points="796.44,-134.09 683.4,-134.09 683.4,-98.09 796.44,-98.09 796.44,-134.09"/>
<text text-anchor="middle" x="739.92" y="-112.34" font-family="Microsoft YaHei" font-size="15.00">饮食记录信息</text>
</g>
<!-- 身体记录&#45;&#45;饮食记录 -->
<g id="edge16" class="edge">
<title>身体记录&#45;&#45;饮食记录</title>
<path fill="none" stroke="#999999" stroke-dasharray="5,2" d="M654.04,-216.1C673.19,-194.02 705.98,-156.22 725.02,-134.26"/>
<text text-anchor="middle" x="710.81" y="-166.78" font-family="Microsoft YaHei" font-size="13.00">1:n</text>
</g>
<!-- 记录属性 -->
<g id="node9" class="node">
<title>记录属性</title>
<ellipse fill="none" stroke="#444444" cx="739.92" cy="-25.03" rx="100.08" ry="25.03"/>
<text text-anchor="middle" x="739.92" y="-21.28" font-family="Microsoft YaHei" font-size="15.00">日期/餐次/摄入量</text>
</g>
<!-- 饮食记录&#45;&#45;记录属性 -->
<g id="edge3" class="edge">
<title>饮食记录&#45;&#45;记录属性</title>
<path fill="none" stroke="#666666" d="M739.92,-97.92C739.92,-84.48 739.92,-65.6 739.92,-50.56"/>
</g>
<!-- 食物 -->
<g id="node4" class="node">
<title>食物</title>
<polygon fill="none" stroke="#444444" points="1008.44,-434.13 925.4,-434.13 925.4,-398.13 1008.44,-398.13 1008.44,-434.13"/>
<text text-anchor="middle" x="966.92" y="-412.38" font-family="Microsoft YaHei" font-size="15.00">食物信息</text>
</g>
<!-- 营养成分 -->
<g id="node10" class="node">
<title>营养成分</title>
<ellipse fill="none" stroke="#444444" cx="1023.92" cy="-234.53" rx="126.07" ry="25.03"/>
<text text-anchor="middle" x="1023.92" y="-230.78" font-family="Microsoft YaHei" font-size="15.00">热量/蛋白质/脂肪/碳水</text>
</g>
<!-- 食物&#45;&#45;营养成分 -->
<g id="edge4" class="edge">
<title>食物&#45;&#45;营养成分</title>
<path fill="none" stroke="#666666" d="M972.38,-397.91C982.58,-365.77 1004.53,-296.6 1016.22,-259.77"/>
</g>
<!-- 引用 -->
<g id="node14" class="node">
<title>引用</title>
<polygon fill="none" stroke="#444444" points="822.92,-269.93 769.88,-234.53 822.92,-199.13 875.96,-234.53 822.92,-269.93"/>
<text text-anchor="middle" x="822.92" y="-230.78" font-family="Microsoft YaHei" font-size="15.00">引用</text>
</g>
<!-- 食物&#45;&#45;引用 -->
<g id="edge10" class="edge">
<title>食物&#45;&#45;引用</title>
<path fill="none" stroke="#666666" d="M953.11,-397.91C926.99,-365.33 870.37,-294.71 841.16,-258.28"/>
<text text-anchor="middle" x="924.09" y="-321.98" font-family="Microsoft YaHei" font-size="13.00">1</text>
</g>
<!-- 食物分类 -->
<g id="node5" class="node">
<title>食物分类</title>
<polygon fill="none" stroke="#444444" points="1023.44,-674.33 910.4,-674.33 910.4,-638.33 1023.44,-638.33 1023.44,-674.33"/>
<text text-anchor="middle" x="966.92" y="-652.58" font-family="Microsoft YaHei" font-size="15.00">食物分类信息</text>
</g>
<!-- 属于 -->
<g id="node15" class="node">
<title>属于</title>
<polygon fill="none" stroke="#444444" points="966.92,-580.33 913.88,-544.93 966.92,-509.53 1019.96,-544.93 966.92,-580.33"/>
<text text-anchor="middle" x="966.92" y="-541.18" font-family="Microsoft YaHei" font-size="15.00">属于</text>
</g>
<!-- 食物分类&#45;&#45;属于 -->
<g id="edge12" class="edge">
<title>食物分类&#45;&#45;属于</title>
<path fill="none" stroke="#666666" d="M966.92,-638.23C966.92,-622.85 966.92,-599.77 966.92,-580.54"/>
<text text-anchor="middle" x="970.67" y="-605.98" font-family="Microsoft YaHei" font-size="13.00">1</text>
</g>
<!-- AI建议 -->
<g id="node6" class="node">
<title>AI建议</title>
<polygon fill="none" stroke="#444444" points="154.94,-252.53 56.9,-252.53 56.9,-216.53 154.94,-216.53 154.94,-252.53"/>
<text text-anchor="middle" x="105.92" y="-230.78" font-family="Microsoft YaHei" font-size="15.00">AI建议信息</text>
</g>
<!-- AI属性 -->
<g id="node11" class="node">
<title>AI属性</title>
<ellipse fill="none" stroke="#444444" cx="105.92" cy="-116.09" rx="105.92" ry="25.03"/>
<text text-anchor="middle" x="105.92" y="-112.34" font-family="Microsoft YaHei" font-size="15.00">建议类型/生成结果</text>
</g>
<!-- AI建议&#45;&#45;AI属性 -->
<g id="edge5" class="edge">
<title>AI建议&#45;&#45;AI属性</title>
<path fill="none" stroke="#666666" d="M105.92,-216.1C105.92,-196.3 105.92,-163.87 105.92,-141.55"/>
</g>
<!-- 拥有&#45;&#45;身体记录 -->
<g id="edge7" class="edge">
<title>拥有&#45;&#45;身体记录</title>
<path fill="none" stroke="#666666" d="M641.35,-380.92C640.71,-342.65 639.7,-282.18 639.21,-252.75"/>
<text text-anchor="middle" x="645.07" y="-321.98" font-family="Microsoft YaHei" font-size="13.00">n</text>
</g>
<!-- 记录&#45;&#45;饮食记录 -->
<g id="edge9" class="edge">
<title>记录&#45;&#45;饮食记录</title>
<path fill="none" stroke="#666666" d="M737.41,-290.11C738.06,-245.39 739.17,-168.75 739.67,-134.51"/>
<text text-anchor="middle" x="742.8" y="-231.18" font-family="Microsoft YaHei" font-size="13.00">n</text>
</g>
<!-- 引用&#45;&#45;饮食记录 -->
<g id="edge11" class="edge">
<title>引用&#45;&#45;饮食记录</title>
<path fill="none" stroke="#666666" d="M806.12,-209.96C790.21,-187.64 766.67,-154.62 752.37,-134.56"/>
<text text-anchor="middle" x="788.03" y="-166.78" font-family="Microsoft YaHei" font-size="13.00">n</text>
</g>
<!-- 属于&#45;&#45;食物 -->
<g id="edge13" class="edge">
<title>属于&#45;&#45;食物</title>
<path fill="none" stroke="#666666" d="M966.92,-508.94C966.92,-484.75 966.92,-453.6 966.92,-434.51"/>
<text text-anchor="middle" x="971.04" y="-477.18" font-family="Microsoft YaHei" font-size="13.00">n</text>
</g>
<!-- 生成&#45;&#45;AI建议 -->
<g id="edge15" class="edge">
<title>生成&#45;&#45;AI建议</title>
<path fill="none" stroke="#666666" d="M105.92,-380.5C105.92,-342.17 105.92,-281.95 105.92,-252.67"/>
<text text-anchor="middle" x="110.04" y="-321.98" font-family="Microsoft YaHei" font-size="13.00">n</text>
</g>
</g>
</svg>
